HIERARCHY
ROOT Hips
{
	OFFSET 0.000000 0.000000 0.000000
	CHANNELS 6 Xposition Yposition Zposition Zrotation Yrotation Xrotation 
	JOINT LHipJoint
	{
		OFFSET 0.000000 0.000000 0.000000
		CHANNELS 3 Zrotation Yrotation Xrotation
		JOINT LeftUpLeg
		{
			OFFSET 1.363060 -1.794630 0.839290
			CHANNELS 3 Zrotation Yrotation Xrotation
			JOINT LeftLeg
			{
				OFFSET 2.448110 -6.726130 0.000000
				CHANNELS 3 Zrotation Yrotation Xrotation
				JOINT LeftFoot
				{
					OFFSET 2.562200 -7.039590 0.000000
					CHANNELS 3 Zrotation Yrotation Xrotation
					JOINT LeftToeBase
					{
						OFFSET 0.157640 -0.433110 2.322550
						CHANNELS 3 Zrotation Yrotation Xrotation
						End Site
						{
							OFFSET 0.000000 0.000000 0.000000
						}
					}
				}
			}
		}
	}
	JOINT RHipJoint
	{
		OFFSET 0.000000 0.000000 0.000000
		CHANNELS 3 Zrotation Yrotation Xrotation
		JOINT RightUpLeg
		{
			OFFSET -1.305520 -1.794630 0.839290
			CHANNELS 3 Zrotation Yrotation Xrotation
			JOINT RightLeg
			{
				OFFSET -2.542530 -6.985550 0.000000
				CHANNELS 3 Zrotation Yrotation Xrotation
				JOINT RightFoot
				{
					OFFSET -2.568260 -7.056230 0.000000
					CHANNELS 3 Zrotation Yrotation Xrotation
					JOINT RightToeBase
					{
						OFFSET -0.164730 -0.452590 2.363150
						CHANNELS 3 Zrotation Yrotation Xrotation
						End Site
						{
							OFFSET 0.000000 0.000000 0.000000
						}
					}
				}
			}
		}
	}
	JOINT LowerBack
	{
		OFFSET 0.000000 0.000000 0.000000
		CHANNELS 3 Zrotation Yrotation Xrotation
		JOINT Spine
		{
			OFFSET 0.028270 2.035590 -0.193380
			CHANNELS 3 Zrotation Yrotation Xrotation
			JOINT Spine1
			{
				OFFSET 0.056720 2.048850 -0.042750
				CHANNELS 3 Zrotation Yrotation Xrotation
				JOINT Neck
				{
					OFFSET 0.000000 0.000000 0.000000
					CHANNELS 3 Zrotation Yrotation Xrotation
					JOINT Neck1
					{
						OFFSET -0.054170 1.746240 0.172020
						CHANNELS 3 Zrotation Yrotation Xrotation
						JOINT Head
						{
							OFFSET 0.104070 1.761360 -0.123970
							CHANNELS 3 Zrotation Yrotation Xrotation
							End Site
							{
								OFFSET 0.000000 0.000000 0.000000
							}
						}
					}
				}
				JOINT LeftShoulder
				{
					OFFSET 0.000000 0.000000 0.000000
					CHANNELS 3 Zrotation Yrotation Xrotation
					JOINT LeftArm
					{
						OFFSET 3.362410 1.200890 -0.311210
						CHANNELS 3 Zrotation Yrotation Xrotation
						JOINT LeftForeArm
						{
							OFFSET 4.983000 -0.000000 -0.000000
							CHANNELS 3 Zrotation Yrotation Xrotation
							JOINT LeftHand
							{
								OFFSET 3.483560 -0.000000 -0.000000
								CHANNELS 3 Zrotation Yrotation Xrotation
								JOINT LeftFingerBase
								{
									OFFSET 0.000000 0.000000 0.000000
									CHANNELS 3 Zrotation Yrotation Xrotation
									JOINT LeftHandIndex1
									{
										OFFSET 0.715260 -0.000000 -0.000000
										CHANNELS 3 Zrotation Yrotation Xrotation
										End Site
										{
											OFFSET 0.000000 0.000000 0.000000
										}
									}
								}
								JOINT LThumb
								{
									OFFSET 0.000000 0.000000 0.000000
									CHANNELS 3 Zrotation Yrotation Xrotation
									End Site
									{
										OFFSET 0.000000 0.000000 0.000000
									}
								}
							}
						}
					}
				}
				JOINT RightShoulder
				{
					OFFSET 0.000000 0.000000 0.000000
					CHANNELS 3 Zrotation Yrotation Xrotation
					JOINT RightArm
					{
						OFFSET -3.136600 1.374050 -0.404650
						CHANNELS 3 Zrotation Yrotation Xrotation
						JOINT RightForeArm
						{
							OFFSET -5.241900 -0.000000 -0.000000
							CHANNELS 3 Zrotation Yrotation Xrotation
							JOINT RightHand
							{
								OFFSET -3.444170 -0.000000 -0.000000
								CHANNELS 3 Zrotation Yrotation Xrotation
								JOINT RightFingerBase
								{
									OFFSET 0.000000 0.000000 0.000000
									CHANNELS 3 Zrotation Yrotation Xrotation
									JOINT RightHandIndex1
									{
										OFFSET -0.622530 -0.000000 -0.000000
										CHANNELS 3 Zrotation Yrotation Xrotation
										End Site
										{
											OFFSET 0.000000 0.000000 0.000000
										}
									}
								}
								JOINT RThumb
								{
									OFFSET 0.000000 0.000000 0.000000
									CHANNELS 3 Zrotation Yrotation Xrotation
									End Site
									{
										OFFSET 0.000000 0.000000 0.000000
									}
								}
							}
						}
					}
				}
			}
		}
	}
}
MOTION
Frames: 9
Frame Time: 0.008333
0.657219 18.367612 9.582914 -11.396727 -0.727809 15.128235 6.738243 4.784239 -1.641258 -21.715531 -51.923811 25.064038 -4.138197 -2.655395 -3.785166 -11.847194 46.382804 -45.499031 1.469600 7.660700 21.688200 0.458888 -4.451576 -0.019099 24.346157 27.130385 -1.099329 3.589025 -0.671177 2.308565 7.984729 -25.730865 -2.587775 -0.000300 -0.119800 0.329200 -1.688372 2.644176 6.944666 25.209836 8.283987 -22.570688 -12.521254 -1.299975 -11.523005 -12.984337 -9.903655 -18.405789 9.314269 -12.613174 30.858999 0.991900 -4.905600 9.610300 -11.084995 -5.522077 2.017974 -85.740321 10.327512 -15.616319 10.510867 -12.199786 -1.740726 0.104246 2.011239 35.174451 18.864851 -10.393623 -4.356100 -7.125000 0.000000 0.000000 -5.052400 17.148300 3.351300 10.645278 7.849621 2.636434 79.793267 -11.191415 -13.337020 -12.640426 17.072257 -2.371537 0.990330 1.172318 47.988018 4.411523 -27.657133 -2.255600 7.125000 0.000000 0.000000 37.309900 -55.003900 -10.213900 
0.659849 18.364245 9.581020 -11.389381 -0.583662 15.524247 6.779053 4.624263 -1.962301 -21.665764 -51.957524 24.910296 -4.136664 -2.615407 -3.744491 -11.801881 46.343048 -45.533665 1.501000 7.738600 21.922800 0.470018 -4.446091 -0.247990 24.253312 27.091246 -1.334234 3.595615 -0.698921 2.237186 7.973207 -25.778490 -2.588280 -0.003100 -0.360900 0.991500 -1.820795 2.785034 7.649816 25.493890 9.014982 -26.052772 -12.493021 -1.338790 -10.889732 -14.512261 -9.232725 -14.163220 10.153559 -12.269363 29.163611 1.523500 -4.814100 8.933900 -10.601402 -5.690201 2.132914 -87.097920 12.149364 -15.742401 10.740129 -12.439270 -1.799598 0.042641 1.977586 34.450999 19.008338 -10.013313 -4.239400 -7.125000 0.000000 0.000000 -4.934900 17.587700 3.225100 10.245529 7.833534 2.733124 79.836697 -13.192454 -12.182647 -12.701065 17.202901 -2.412224 0.976126 1.165086 47.331783 4.169859 -27.594762 -2.125900 7.125000 0.000000 0.000000 37.015200 -54.992700 -10.104500 
0.660586 18.363193 9.580284 -11.489295 -0.508531 15.534380 6.863190 4.585049 -2.015073 -21.657773 -51.924263 24.930412 -4.139050 -2.625466 -3.727977 -11.851607 46.381430 -45.482676 1.491600 7.715200 21.852500 0.545190 -4.470984 -0.234640 24.274364 27.040707 -1.362088 3.598191 -0.694254 2.181801 7.957367 -25.772336 -2.531868 -0.001600 -0.261800 0.719300 -2.098385 2.810977 7.659895 26.497644 9.242577 -26.508730 -12.564211 -1.470369 -10.919821 -15.463806 -8.927019 -12.827812 10.443104 -11.961795 28.462303 1.775700 -4.716200 8.712100 -10.501109 -5.747463 2.088583 -87.926241 12.714700 -16.207210 10.872341 -12.584270 -1.830849 0.030698 1.947407 34.250422 18.921762 -9.802116 -4.132000 -7.125000 0.000000 0.000000 -4.999200 17.847600 3.238900 9.962808 7.834451 2.736991 79.528520 -13.882504 -11.264378 -12.684748 17.237842 -2.422017 0.976493 1.165795 46.884492 4.034386 -27.719871 -2.062400 7.125000 0.000000 0.000000 36.986200 -55.124400 -10.220400 
0.658587 18.363403 9.579758 -11.703604 -0.467479 15.315764 6.990727 4.639247 -1.876235 -21.532632 -51.839293 24.937659 -4.144154 -2.668926 -3.723546 -11.878826 46.347953 -45.383460 1.478600 7.683100 21.755700 0.690010 -4.511073 -0.057314 24.394785 27.112821 -1.227539 3.599653 -0.663582 2.128539 7.973678 -25.815920 -2.561248 -0.001700 -0.267800 0.735900 -2.528803 2.741706 7.179204 28.193208 9.072090 -24.685369 -12.777785 -1.679067 -11.339462 -15.923214 -9.111463 -14.252956 10.393052 -11.811404 28.931058 1.806600 -4.633500 9.011800 -10.714947 -5.706247 1.945547 -88.206243 12.054519 -17.051245 10.872242 -12.588611 -1.830153 0.045967 1.953830 34.564209 18.919905 -9.780701 -4.127000 -7.125000 0.000000 0.000000 -5.000200 17.861300 3.238000 9.767105 7.919396 2.711805 78.981393 -13.291167 -10.697593 -12.582775 17.146729 -2.393442 0.981435 1.161811 46.695812 3.894116 -27.755209 -1.990400 7.125000 0.000000 0.000000 36.877900 -55.184000 -10.240400 
0.651642 18.368664 9.579232 -11.514800 -0.585958 15.290123 7.036578 4.701476 -1.756941 -21.739476 -51.979533 24.884819 -4.153348 -2.682395 -3.675198 -11.691965 46.224497 -45.672942 1.515800 7.774900 22.032500 0.816789 -4.534052 0.040693 24.046309 27.812908 -0.999723 3.611294 -0.615300 2.001809 8.187090 -26.329093 -2.944251 -0.013700 -0.755600 2.076600 -3.278830 2.632578 6.650070 29.323250 8.789692 -23.169142 -12.640731 -1.809908 -11.626203 -16.251863 -9.323337 -15.800395 10.354557 -11.695929 29.532304 1.829600 -4.559200 9.358100 -10.906387 -5.672615 1.829047 -88.370201 11.472995 -17.038013 10.913222 -12.615765 -1.831859 0.010567 1.938265 34.141576 18.926834 -9.551980 -4.040300 -7.125000 0.000000 0.000000 -4.984300 18.127400 3.198300 9.668242 7.995408 2.712107 78.363315 -12.570829 -10.123954 -12.398520 16.950174 -2.345724 0.996841 1.182976 46.116354 4.049771 -28.036931 -2.081500 7.125000 0.000000 0.000000 37.269800 -55.405700 -10.586000 
0.643750 18.378976 9.598382 -11.556031 -0.444673 15.626275 7.132129 4.747090 -1.712436 -21.615091 -52.516491 24.692436 -4.152970 -2.687476 -3.665383 -11.582959 46.292383 -46.126023 1.531000 7.811900 22.144300 1.014471 -4.543758 0.088007 23.867891 28.675590 -0.877271 3.632945 -0.527699 1.728061 8.479023 -27.098521 -3.528625 -0.038500 -1.267200 3.484300 -4.054405 2.375058 5.526005 31.284793 8.588855 -22.294156 -12.540719 -2.115652 -11.513291 -17.641881 -9.291579 -16.063469 10.731278 -11.320927 29.475803 2.142900 -4.396300 9.534000 -10.963045 -5.761759 1.662969 -89.425491 11.557201 -16.521866 11.159800 -12.845815 -1.879862 -0.078603 1.865412 32.741203 18.818371 -8.928821 -3.765300 -7.125000 0.000000 0.000000 -5.051700 18.881300 3.157400 9.332892 8.079707 2.731650 77.307718 -12.230071 -8.867150 -12.100060 16.631787 -2.283014 1.029950 1.225191 45.017564 4.503677 -28.696577 -2.345900 7.125000 0.000000 0.000000 38.280900 -55.894200 -11.420300 
0.640909 18.383185 9.606274 -11.393005 -0.505569 15.844832 7.081755 4.764442 -1.730834 -21.898520 -52.992285 24.892393 -4.160672 -2.664236 -3.658050 -11.374573 46.358683 -46.781613 1.576800 7.922600 22.479200 1.024319 -4.534562 0.028698 23.650469 29.165269 -0.792323 3.642747 -0.485502 1.595758 8.638916 -27.505071 -3.810603 -0.051500 -1.465100 4.029500 -4.166882 2.382406 5.293117 31.018210 8.664118 -22.620456 -12.429425 -2.052799 -11.246423 -17.905651 -9.342435 -16.041487 11.054606 -11.429719 29.598816 2.242000 -4.418700 9.603000 -10.923007 -5.783096 1.683269 -89.395453 11.777735 -15.681685 11.255121 -12.939807 -1.895114 -0.139473 1.812141 32.023302 18.749562 -8.477047 -3.569400 -7.125000 0.000000 0.000000 -5.091100 19.430600 3.119800 9.392585 8.080476 2.760949 77.243370 -12.191863 -8.971965 -11.982586 16.468481 -2.252659 1.045338 1.246149 44.637132 4.752126 -28.997581 -2.492700 7.125000 0.000000 0.000000 38.792300 -56.106000 -11.818900 
0.641541 18.384027 9.606063 -11.400467 -0.529133 15.838534 7.071525 4.765743 -1.732306 -22.011927 -53.114183 25.071296 -4.166348 -2.665382 -3.668253 -11.301701 46.383466 -47.012027 1.604800 7.989200 22.681100 1.018705 -4.542229 0.030058 23.656068 29.130451 -0.767669 3.644264 -0.459416 1.525818 8.627895 -27.491056 -3.717345 -0.048200 -1.417300 3.897700 -4.101811 2.428759 5.338051 30.921731 8.723653 -22.711785 -12.452430 -2.021970 -11.232898 -17.988203 -9.313682 -15.965773 11.241054 -11.441087 29.586151 2.298200 -4.406500 9.600100 -10.903252 -5.781291 1.696540 -89.344261 11.837990 -15.705747 11.256745 -12.947519 -1.895168 -0.149055 1.806513 32.058867 18.774620 -8.378830 -3.536800 -7.125000 0.000000 0.000000 -5.067800 19.543300 3.092600 9.413153 8.076897 2.763753 77.302480 -12.239721 -9.223821 -11.947425 16.414914 -2.237835 1.042693 1.241271 44.824470 4.793324 -28.862355 -2.505200 7.125000 0.000000 0.000000 38.708400 -55.985000 -11.667700 
0.641646 18.385500 9.604274 -11.397729 -0.538889 15.824507 7.073847 4.762301 -1.736314 -21.994054 -53.074005 25.044509 -4.166344 -2.666754 -3.668456 -11.293335 46.352289 -46.977838 1.605900 7.991800 22.689100 1.013239 -4.542186 0.039708 23.631232 28.932889 -0.807951 3.644081 -0.422392 1.421218 8.591633 -27.432252 -3.426236 -0.037200 -1.245700 3.425000 -4.097835 2.455115 5.376749 30.890429 8.754620 -22.743490 -12.444853 -2.005112 -11.240767 -17.855305 -9.246168 -15.941042 11.177952 -11.365264 29.619589 2.278600 -4.368300 9.592900 -10.905275 -5.777337 1.705922 -89.311254 11.855195 -15.847895 11.248196 -12.943912 -1.897314 -0.139391 1.822821 32.130355 18.839102 -8.519339 -3.606000 -7.125000 0.000000 0.000000 -5.022100 19.371600 3.083800 9.411726 8.075542 2.766791 77.338385 -12.256370 -9.448474 -11.900911 16.351900 -2.220940 1.042370 1.234161 44.997581 4.787564 -28.756518 -2.494000 7.125000 0.000000 0.000000 38.604900 -55.897700 -11.542800 
